<svg xmlns="http://www.w3.org/2000/svg" width="555.5" height="645.545" viewBox="0 0 555.5 645.545" class="featureSvg_GfXr" role="img"><path d="M38.5 406.773h-37v-37c0-6.6 5.4-12 12-12h36v38c0 6.065-4.935 11-11 11ZM544.5 49.773h-37v-37c0-6.6 5.4-12 12-12h36v38c0 6.065-4.935 11-11 11Z" fill="#3f3d56"></path><path fill="#a0616a" d="m285.241 629.768-13.327-.001-6.34-51.405 19.67.002-.003 51.404z"></path><path d="m285.71 643.671-40.982-.002v-.518c0-8.81 7.142-15.95 15.951-15.951h.001l7.486-5.68 13.967 5.68h3.578v16.471ZM276.795 364.463 268 395s-19 99.935-14 113.935S262.685 611 262.685 611h26.016s3.504-22.34 3.401-25.703C292 581.935 298 527.935 290 519.935l35-88 55-46-21.567-26.77-81.638 5.298Z" fill="#2f2e41"></path><path d="M404 414v-16l-16-22c-6.6 0-12 5.4-12 12v54c0 6.6 5.4 12 12 12h54c6.6 0 12-5.4 12-12l-22-15h-15c-7.168 0-13-5.832-13-13ZM481.22 281.5H154.78c-10.631 0-19.28-8.649-19.28-19.28V148.78c0-10.631 8.649-19.28 19.28-19.28h326.44c10.63 0 19.28 8.649 19.28 19.28v113.44c0 10.631-8.65 19.28-19.28 19.28Z" fill="#666eff" opacity="0.5"></path><path d="M340.78 260h-213c-10.906 0-19.78-8.874-19.78-19.78V126.78c0-10.907 8.873-19.78 19.78-19.78h326.44c10.906 0 19.78 8.874 19.78 19.78C474 200.238 414.238 260 340.78 260Zm-213-151c-9.804 0-17.78 7.976-17.78 17.78v113.44c0 9.804 7.976 17.78 17.78 17.78h213C413.135 258 472 199.135 472 126.78c0-9.804-7.976-17.78-17.78-17.78H127.78Z" fill="#666eff"></path><path d="m367.8 377.044-2.117-29.963 16.948-3.597 1.11 31.758a10.047 10.047 0 0 1 1.702 2.43c2.48 4.968.462 11.006-4.507 13.485-4.968 2.48-11.006.462-13.485-4.507-1.581-3.168-1.327-6.768.349-9.606Z" fill="#a0616a"></path><path d="m340.895 184.923-6.52 4.86 16.024 91.378-2.342 5.594 3.125 2.939.958 7.028L364.758 362H384c-.282-2.268 5.28-4.592 5-7-.32-2.753-2.575-6.918-2.895-9.827a1927.76 1927.76 0 0 1-.736-6.784c-.113-1.059-.227-2.124-.34-3.197-2.46-23.216-3.472-49.341-4.893-71.9-1.812-28.76-4.289-51.724-11.282-55.476l-27.959-22.893Z" fill="#3f3d56"></path><path d="M389.535 628.212c2.065.13 3.207-2.437 1.644-3.933l-.155-.618c.02-.05.04-.1.062-.149 2.089-4.981 9.17-4.947 11.24.042 1.84 4.428 4.18 8.864 4.757 13.546a18.029 18.029 0 0 1-.317 6.2c4.308-9.41 6.575-19.686 6.575-30.02 0-2.597-.142-5.193-.432-7.783a71.607 71.607 0 0 0-.995-6.31c-2.306-11.278-7.299-22.019-14.5-30.99-3.462-1.892-6.35-4.85-8.093-8.397-.627-1.278-1.118-2.654-1.35-4.056.394.052 1.485-5.948 1.188-6.317.55-.833 1.532-1.247 2.132-2.06 2.982-4.043 7.091-3.337 9.236 2.157 4.582 2.313 4.627 6.148 1.815 9.837-1.789 2.347-2.035 5.523-3.604 8.035.161.207.33.407.49.614a73.591 73.591 0 0 1 7.682 12.168c-.61-4.766.29-10.508 1.826-14.21 1.748-4.217 5.025-7.768 7.91-11.414 3.467-4.38 10.574-2.468 11.185 3.083l.017.161c-.429.242-.849.499-1.259.77-2.34 1.547-1.53 5.174 1.241 5.602l.063.01a30.628 30.628 0 0 1-.807 4.579c3.702 14.316-4.29 19.53-15.702 19.764-.252.13-.497.258-.749.381a73.187 73.187 0 0 1 2.764 9.979 73.856 73.856 0 0 1 1.28 9.049c.296 3.83.27 7.68-.052 11.503l.019-.135c.82-4.212 3.107-8.145 6.427-10.87 4.945-4.063 11.932-5.56 17.268-8.825 2.568-1.572 5.86.46 5.411 3.437l-.022.143c-.794.323-1.57.697-2.318 1.117-.429.242-.849.499-1.26.77-2.339 1.547-1.53 5.174 1.242 5.602l.063.01.129.019a30.655 30.655 0 0 1-5.639 8.829c-2.314 12.497-12.256 13.683-22.89 10.044h-.006a75.092 75.092 0 0 1-5.045 14.726h-18.02c-.065-.2-.123-.407-.18-.607 1.666.103 3.345.006 4.986-.297-1.337-1.641-2.674-3.295-4.011-4.935a1.12 1.12 0 0 1-.084-.097c-.679-.84-1.363-1.673-2.041-2.512v-.001a29.99 29.99 0 0 1 .878-7.64Z" fill="#f2f2f2"></path><path d="M187.983 644.355c0 .66.53 1.19 1.19 1.19h253.29c.66 0 1.19-.53 1.19-1.19 0-.66-.53-1.19-1.19-1.19h-253.29c-.66 0-1.19.53-1.19 1.19Z" fill="#ccc"></path><path d="M22.69 0C10.159 0 0 10.159 0 22.69V407h2V157.68C2 71.7 71.7 2 157.68 2l397.684-.364L555 0H22.69Z" fill="#3f3d56"></path><path d="M189 256c0 1.34-.04 2.68-.11 4h-61.11c-10.37 0-18.78-8.41-18.78-18.78v-56.78c2.63-.29 5.3-.44 8-.44 39.76 0 72 32.24 72 72ZM415.55 182.996H220.183c-3.33 0-6.036 2.707-6.036 6.036s2.706 6.036 6.036 6.036H415.55c3.33 0 6.036-2.706 6.036-6.036s-2.707-6.036-6.036-6.036ZM280.756 149.152h-60.574c-3.33 0-6.036 2.706-6.036 6.036s2.706 6.036 6.036 6.036h60.574c3.33 0 6.036-2.706 6.036-6.036s-2.706-6.036-6.036-6.036Z" fill="#666eff"></path><path fill="#a0616a" d="m340.241 629.768-13.327-.001-6.34-51.405 19.67.002-.003 51.404z"></path><path d="m340.71 643.671-40.982-.002v-.518c0-8.81 7.142-15.95 15.951-15.951h.001l7.486-5.68 13.967 5.68h3.578v16.471ZM312.5 376.5l7 61L304 501l13.5 110.5 25 2s12-81 1-109l28-110-21-12-38-6Z" fill="#2f2e41"></path><path d="M338.583 170.386c-4.412-4.71-2.901-9-9.722-10.203-4.624-.815-10.189.002-14.924-.002-11.9-.01-13.689 6.57-20.54 15.311C275.75 198.01 292.168 216.08 288 243c-3.873 25.014 6.506 38.636 1.91 63.718-2.189 11.939-6.43 28.75-13.852 42.48C271.96 356.78 269.994 365.6 271 374c.89 7.435 96.907 8.302 99.564 6.472 3.128-2.154 2.07-6.772 2.376-9.99.828-8.715 1.67-14.822-.423-23.724-1.967-8.365-1.93-18.086-1.958-26.732-.026-8.336-11.767 5.426-11.085-2.896.87-10.614 2.594-20.999 4.494-31.516 1.471-8.141 2.047-16.506 4.208-24.477 2.489-9.182 5.456-17.259 5.556-26.888.078-7.496 1.887-17.975-1.093-24.842-4.39-10.117-13.244-19.227-20.712-27.33-3.714-4.029-7.401-6.65-11.644-9.99" fill="#3f3d56"></path><path d="m187.85 216.49 27.034 13.09-5.324 16.488-28.09-14.858c-.944.228-1.935.325-2.954.265-5.544-.325-9.774-5.082-9.448-10.626.325-5.543 5.082-9.773 10.625-9.448 3.536.208 6.53 2.222 8.156 5.089Z" fill="#a0616a"></path><path d="M270.775 291.212C268.185 289.841 228.74 264.685 208 253c-.389-.219-3.066 1.215-3.44 1.005-.57-.321-.027-2.705-.56-3.005-1.155-.65-3.312.823-4.269.284C196.266 249.33 197 241 197 241l7-17 11.444-.365L218 228l5.426-.654L227 232l41.192 16.162c1.601-21.478 10.19-39.197 19.494-56.53l3.761.71c9.484 1.792 15.81 10.819 14.259 20.345l-10.863 66.676a16.466 16.466 0 0 1-11.455 13.055 16.52 16.52 0 0 1-12.613-1.206Z" fill="#3f3d56"></path><circle cx="311.671" cy="123.257" r="30.605" fill="#a0616a"></circle><path d="M345.64 124.188c-1.07-.43-2.14-.79-3.07-1.02 5.251 6.611-3.614 12.413-4.99 19.18.114 5.372-2.822 7.808-7.96 9.28l.12-.42c-41.791 10.704 2.293-24.93-30.381-25.911-4.98.29 1.67-15.367-3.45-14.58-13 2-13.606.626-14.999 10.002-2.53.829-6-3.001-5.59-7.001-.927-1.684-3.347-.606-4.32-3.16-1.03-1.95-2.99-14.7 1.48-8.74.295-4.07-.856-12.387 4.22-5.28-.661-3.234 2.145-1.833 3.32.09.83-1.89 1.66-3.77 2.48-5.66-.23.85-.08 1.78.34 2.62 2.358-5.012 5.96-5.466 11.58-6.88-.066 1.535-.03 3.33.18 4.72 6.525-10.812 22.328-7.791 28.629 1.76 3.993.912 5.68-.47 9.68.53 10.748 2.687 15.662 19.26 12.73 30.47Z" fill="#2f2e41"></path><path d="M427 413h37v-37c0-6.6-5.4-12-12-12h-36v38c0 6.065 4.935 11 11 11Z" fill="#666eff"></path><ellipse cx="127.706" cy="55.21" rx="8.457" ry="8.645" fill="#3f3d56"></ellipse><ellipse cx="156.92" cy="55.21" rx="8.457" ry="8.645" fill="#3f3d56"></ellipse><ellipse cx="186.134" cy="55.21" rx="8.457" ry="8.645" fill="#3f3d56"></ellipse><path d="M393.5 84.273c-.827 0-1.5.673-1.5 1.5v10c0 .827.673 1.5 1.5 1.5h10c.827 0 1.5-.673 1.5-1.5v-10c0-.827-.673-1.5-1.5-1.5h-10ZM416.5 84.273c-.827 0-1.5.673-1.5 1.5v10c0 .827.673 1.5 1.5 1.5h10c.827 0 1.5-.673 1.5-1.5v-10c0-.827-.673-1.5-1.5-1.5h-10ZM439.5 84.273c-.827 0-1.5.673-1.5 1.5v10c0 .827.673 1.5 1.5 1.5h10c.827 0 1.5-.673 1.5-1.5v-10c0-.827-.673-1.5-1.5-1.5h-10Z" fill="#666eff"></path></svg>
