<svg width="24" height="24" viewBox="0 0 48 48" xmlns="http://www.w3.org/2000/svg">
    <path stroke-width="3px" fill="none" stroke="currentColor" stroke-linecap="round" stroke-linejoin="round" d="M24.061 23.795s-5.093 13.721-9.147 13.721c-3.535 0-4.886-3.222-5.198-8.94c-.208-2.286 6.237-4.573 6.237-4.573s-8.42.831-8.836-.624c-2.183-7.588-4.782-13.098.416-12.89c10.811.312 16.528 13.306 16.528 13.306m0 0s5.094 13.721 9.148 13.721c3.534 0 4.886-3.222 5.198-8.94c.104-2.286-6.341-4.573-6.341-4.573s8.42.831 8.836-.624c2.183-7.588 4.781-12.994-.52-12.89c-10.603.312-16.32 13.306-16.32 13.306"/>
</svg>
